<mxfile host="app.diagrams.net" modified="2020-11-21T06:41:29.390Z" agent="5.0 (X11; Linux x86_64) AppleWebKit/537.36 (KHTML, like Gecko) Chrome/85.0.4183.121 Safari/537.36" etag="YKnDdK_VwrUmH-YsmBsT" version="13.10.0" type="github">
  <diagram id="5nQqb0zNkpL_uHLUdu7z" name="Page-1">
    <mxGraphModel dx="782" dy="745" grid="1" gridSize="10" guides="1" tooltips="1" connect="1" arrows="1" fold="1" page="1" pageScale="1" pageWidth="850" pageHeight="1100" math="0" shadow="0">
      <root>
        <mxCell id="0" />
        <mxCell id="1" parent="0" />
        <mxCell id="ayGVQyxzVtfzJ8RmpB8I-37" value="User" style="shape=umlActor;verticalLabelPosition=bottom;verticalAlign=top;html=1;outlineConnect=0;" vertex="1" parent="1">
          <mxGeometry x="20" y="195" width="30" height="60" as="geometry" />
        </mxCell>
        <mxCell id="ayGVQyxzVtfzJ8RmpB8I-38" value="Chọn thông tin liên quan tới sảnh tiệc cưới" style="ellipse;whiteSpace=wrap;html=1;" vertex="1" parent="1">
          <mxGeometry x="280" y="120" width="120" height="70" as="geometry" />
        </mxCell>
        <mxCell id="ayGVQyxzVtfzJ8RmpB8I-39" value="Chọn dịch vụ " style="ellipse;whiteSpace=wrap;html=1;" vertex="1" parent="1">
          <mxGeometry x="290" y="260" width="120" height="45" as="geometry" />
        </mxCell>
        <mxCell id="ayGVQyxzVtfzJ8RmpB8I-40" value="Chọn menu" style="ellipse;whiteSpace=wrap;html=1;" vertex="1" parent="1">
          <mxGeometry x="305" y="200" width="120" height="40" as="geometry" />
        </mxCell>
        <mxCell id="ayGVQyxzVtfzJ8RmpB8I-41" value="Gửi thông tin tiệc cưới" style="ellipse;whiteSpace=wrap;html=1;" vertex="1" parent="1">
          <mxGeometry x="280" y="330" width="120" height="50" as="geometry" />
        </mxCell>
        <mxCell id="ayGVQyxzVtfzJ8RmpB8I-42" value="Đặt tiệc cưới" style="ellipse;whiteSpace=wrap;html=1;" vertex="1" parent="1">
          <mxGeometry x="90" y="200" width="120" height="50" as="geometry" />
        </mxCell>
        <mxCell id="ayGVQyxzVtfzJ8RmpB8I-43" value="&amp;lt;&amp;lt;include&amp;gt;&amp;gt;" style="endArrow=open;endSize=12;dashed=1;html=1;entryX=-0.017;entryY=0.6;entryDx=0;entryDy=0;entryPerimeter=0;exitX=0.917;exitY=0.2;exitDx=0;exitDy=0;exitPerimeter=0;" edge="1" parent="1" source="ayGVQyxzVtfzJ8RmpB8I-42" target="ayGVQyxzVtfzJ8RmpB8I-38">
          <mxGeometry width="160" relative="1" as="geometry">
            <mxPoint x="200" y="210" as="sourcePoint" />
            <mxPoint x="360" y="210" as="targetPoint" />
          </mxGeometry>
        </mxCell>
        <mxCell id="ayGVQyxzVtfzJ8RmpB8I-44" value="&amp;lt;&amp;lt;include&amp;gt;&amp;gt;" style="endArrow=open;endSize=12;dashed=1;html=1;entryX=0;entryY=0.5;entryDx=0;entryDy=0;exitX=1;exitY=0.5;exitDx=0;exitDy=0;" edge="1" parent="1" source="ayGVQyxzVtfzJ8RmpB8I-42" target="ayGVQyxzVtfzJ8RmpB8I-40">
          <mxGeometry width="160" relative="1" as="geometry">
            <mxPoint x="210" y="220" as="sourcePoint" />
            <mxPoint x="287.96000000000004" y="172" as="targetPoint" />
          </mxGeometry>
        </mxCell>
        <mxCell id="ayGVQyxzVtfzJ8RmpB8I-45" value="&amp;lt;&amp;lt;extend&amp;gt;&amp;gt;" style="endArrow=open;endSize=12;dashed=1;html=1;entryX=0.95;entryY=0.76;entryDx=0;entryDy=0;exitX=0;exitY=0.5;exitDx=0;exitDy=0;entryPerimeter=0;" edge="1" parent="1" source="ayGVQyxzVtfzJ8RmpB8I-39" target="ayGVQyxzVtfzJ8RmpB8I-42">
          <mxGeometry width="160" relative="1" as="geometry">
            <mxPoint x="220" y="235" as="sourcePoint" />
            <mxPoint x="315" y="230" as="targetPoint" />
          </mxGeometry>
        </mxCell>
        <mxCell id="ayGVQyxzVtfzJ8RmpB8I-46" value="&amp;lt;&amp;lt;extend&amp;gt;&amp;gt;" style="endArrow=open;endSize=12;dashed=1;html=1;entryX=0.8;entryY=0.96;entryDx=0;entryDy=0;exitX=-0.025;exitY=0.36;exitDx=0;exitDy=0;entryPerimeter=0;exitPerimeter=0;" edge="1" parent="1" source="ayGVQyxzVtfzJ8RmpB8I-41" target="ayGVQyxzVtfzJ8RmpB8I-42">
          <mxGeometry width="160" relative="1" as="geometry">
            <mxPoint x="300" y="292.5" as="sourcePoint" />
            <mxPoint x="214" y="248" as="targetPoint" />
          </mxGeometry>
        </mxCell>
        <mxCell id="ayGVQyxzVtfzJ8RmpB8I-47" value="&amp;lt;&amp;lt;extend&amp;gt;&amp;gt;" style="endArrow=open;endSize=12;dashed=1;html=1;entryX=0.658;entryY=1.04;entryDx=0;entryDy=0;exitX=0;exitY=0.5;exitDx=0;exitDy=0;entryPerimeter=0;" edge="1" parent="1" target="ayGVQyxzVtfzJ8RmpB8I-41" source="ayGVQyxzVtfzJ8RmpB8I-49">
          <mxGeometry width="160" relative="1" as="geometry">
            <mxPoint x="390" y="435" as="sourcePoint" />
            <mxPoint x="196" y="258" as="targetPoint" />
          </mxGeometry>
        </mxCell>
        <mxCell id="ayGVQyxzVtfzJ8RmpB8I-48" value="" style="endArrow=none;html=1;entryX=0;entryY=0.5;entryDx=0;entryDy=0;" edge="1" parent="1" source="ayGVQyxzVtfzJ8RmpB8I-37" target="ayGVQyxzVtfzJ8RmpB8I-42">
          <mxGeometry width="50" height="50" relative="1" as="geometry">
            <mxPoint x="50" y="260" as="sourcePoint" />
            <mxPoint x="100" y="210" as="targetPoint" />
          </mxGeometry>
        </mxCell>
        <mxCell id="ayGVQyxzVtfzJ8RmpB8I-49" value="In hóa đơn" style="ellipse;whiteSpace=wrap;html=1;" vertex="1" parent="1">
          <mxGeometry x="390" y="410" width="120" height="50" as="geometry" />
        </mxCell>
        <mxCell id="ayGVQyxzVtfzJ8RmpB8I-51" value="Chọn sảnh" style="ellipse;whiteSpace=wrap;html=1;" vertex="1" parent="1">
          <mxGeometry x="390" y="20" width="90" height="40" as="geometry" />
        </mxCell>
        <mxCell id="ayGVQyxzVtfzJ8RmpB8I-52" value="Chọn ngày" style="ellipse;whiteSpace=wrap;html=1;" vertex="1" parent="1">
          <mxGeometry x="450" y="60" width="90" height="40" as="geometry" />
        </mxCell>
        <mxCell id="ayGVQyxzVtfzJ8RmpB8I-53" value="Chọn buổi" style="ellipse;whiteSpace=wrap;html=1;" vertex="1" parent="1">
          <mxGeometry x="490" y="110" width="90" height="40" as="geometry" />
        </mxCell>
        <mxCell id="ayGVQyxzVtfzJ8RmpB8I-55" value="&amp;lt;&amp;lt;include&amp;gt;&amp;gt;" style="endArrow=open;endSize=12;dashed=1;html=1;entryX=0;entryY=1;entryDx=0;entryDy=0;exitX=0.775;exitY=0.1;exitDx=0;exitDy=0;exitPerimeter=0;" edge="1" parent="1" source="ayGVQyxzVtfzJ8RmpB8I-38" target="ayGVQyxzVtfzJ8RmpB8I-51">
          <mxGeometry width="160" relative="1" as="geometry">
            <mxPoint x="355.4089210379184" y="130.14250886674836" as="sourcePoint" />
            <mxPoint x="368.98" y="49" as="targetPoint" />
          </mxGeometry>
        </mxCell>
        <mxCell id="ayGVQyxzVtfzJ8RmpB8I-56" value="&amp;lt;&amp;lt;include&amp;gt;&amp;gt;" style="endArrow=open;endSize=12;dashed=1;html=1;entryX=0.044;entryY=0.8;entryDx=0;entryDy=0;exitX=0.917;exitY=0.243;exitDx=0;exitDy=0;exitPerimeter=0;entryPerimeter=0;" edge="1" parent="1" source="ayGVQyxzVtfzJ8RmpB8I-38" target="ayGVQyxzVtfzJ8RmpB8I-52">
          <mxGeometry width="160" relative="1" as="geometry">
            <mxPoint x="383" y="137" as="sourcePoint" />
            <mxPoint x="443.1801948466052" y="64.14213562373095" as="targetPoint" />
          </mxGeometry>
        </mxCell>
        <mxCell id="ayGVQyxzVtfzJ8RmpB8I-57" value="&amp;lt;&amp;lt;include&amp;gt;&amp;gt;" style="endArrow=open;endSize=12;dashed=1;html=1;entryX=-0.022;entryY=0.7;entryDx=0;entryDy=0;entryPerimeter=0;" edge="1" parent="1" target="ayGVQyxzVtfzJ8RmpB8I-53">
          <mxGeometry width="160" relative="1" as="geometry">
            <mxPoint x="400" y="150" as="sourcePoint" />
            <mxPoint x="483.96000000000004" y="102" as="targetPoint" />
          </mxGeometry>
        </mxCell>
      </root>
    </mxGraphModel>
  </diagram>
</mxfile>
